<svg xmlns="http://www.w3.org/2000/svg" viewBox="0 0 1200 800" role="img" aria-labelledby="title desc">
  <title id="title">Responsive web layout</title>
  <desc id="desc">Multiple device frames showing a responsive web interface.</desc>
  <defs>
    <linearGradient id="bg" x1="0" x2="1" y1="0" y2="1">
      <stop offset="0%" stop-color="#06111d"/>
      <stop offset="100%" stop-color="#172b40"/>
    </linearGradient>
    <linearGradient id="accent" x1="0" x2="1" y1="0" y2="0">
      <stop offset="0%" stop-color="#6ee7ff"/>
      <stop offset="50%" stop-color="#8b7dff"/>
      <stop offset="100%" stop-color="#ff7db8"/>
    </linearGradient>
  </defs>
  <rect width="1200" height="800" fill="url(#bg)"/>
  <rect x="90" y="92" width="1020" height="618" rx="32" fill="#0d1724" stroke="#27445f" stroke-width="2"/>
  <rect x="168" y="144" width="864" height="58" rx="18" fill="#122033"/>
  <rect x="180" y="172" width="180" height="10" rx="5" fill="#6ee7ff"/>
  <rect x="390" y="172" width="120" height="10" rx="5" fill="#8b7dff"/>
  <rect x="530" y="172" width="150" height="10" rx="5" fill="#ff7db8"/>
  <rect x="168" y="234" width="520" height="388" rx="24" fill="#101b2b"/>
  <rect x="718" y="234" width="314" height="388" rx="24" fill="#101b2b"/>
  <g fill="#15273c">
    <rect x="202" y="268" width="202" height="122" rx="18"/>
    <rect x="424" y="268" width="202" height="122" rx="18"/>
    <rect x="202" y="414" width="424" height="174" rx="18"/>
  </g>
  <path d="M230 528h132l42-72 66 34 62-64 48 26 42-34" fill="none" stroke="url(#accent)" stroke-width="14" stroke-linecap="round" stroke-linejoin="round"/>
  <rect x="756" y="274" width="218" height="26" rx="13" fill="#33506d"/>
  <rect x="756" y="320" width="172" height="16" rx="8" fill="#33506d"/>
  <rect x="756" y="352" width="190" height="16" rx="8" fill="#33506d"/>
  <rect x="756" y="396" width="240" height="16" rx="8" fill="#33506d"/>
  <rect x="756" y="428" width="140" height="16" rx="8" fill="#33506d"/>
  <rect x="756" y="470" width="210" height="16" rx="8" fill="#33506d"/>
  <rect x="756" y="512" width="174" height="16" rx="8" fill="#33506d"/>
  <path d="M168 234h864" stroke="url(#accent)" stroke-width="2" opacity="0.5"/>
</svg>