<svg xmlns="http://www.w3.org/2000/svg" viewBox="0 0 1200 800" role="img" aria-labelledby="title desc">
  <title id="title">African city skyline</title>
  <desc id="desc">Illustration of an African city skyline with warm light and red earth tones.</desc>
  <defs>
    <linearGradient id="sky" x1="0" x2="0" y1="0" y2="1">
      <stop offset="0%" stop-color="#12324a"/>
      <stop offset="55%" stop-color="#2d5c73"/>
      <stop offset="100%" stop-color="#f2c27b"/>
    </linearGradient>
    <linearGradient id="ground" x1="0" x2="0" y1="0" y2="1">
      <stop offset="0%" stop-color="#5b2d18"/>
      <stop offset="100%" stop-color="#2f1710"/>
    </linearGradient>
  </defs>
  <rect width="1200" height="800" fill="url(#sky)"/>
  <circle cx="980" cy="150" r="72" fill="#ffd98d" opacity="0.92"/>
  <rect y="565" width="1200" height="235" fill="url(#ground)"/>
  <g fill="#1d2430">
    <rect x="70" y="455" width="85" height="190"/>
    <rect x="170" y="395" width="120" height="250"/>
    <rect x="310" y="430" width="95" height="215"/>
    <rect x="420" y="360" width="145" height="285"/>
    <rect x="585" y="300" width="175" height="345"/>
    <rect x="775" y="420" width="95" height="225"/>
    <rect x="890" y="350" width="150" height="295"/>
    <rect x="1055" y="470" width="90" height="175"/>
  </g>
  <g fill="#d78d4f" opacity="0.9">
    <rect x="604" y="220" width="38" height="110" rx="4"/>
    <rect x="700" y="250" width="28" height="80" rx="4"/>
  </g>
  <g fill="#f8e7be" opacity="0.35">
    <rect x="92" y="485" width="18" height="18"/>
    <rect x="120" y="520" width="18" height="18"/>
    <rect x="207" y="430" width="18" height="18"/>
    <rect x="245" y="470" width="18" height="18"/>
    <rect x="350" y="465" width="18" height="18"/>
    <rect x="452" y="390" width="18" height="18"/>
    <rect x="505" y="440" width="18" height="18"/>
    <rect x="620" y="340" width="18" height="18"/>
    <rect x="660" y="380" width="18" height="18"/>
    <rect x="820" y="470" width="18" height="18"/>
    <rect x="918" y="405" width="18" height="18"/>
    <rect x="970" y="455" width="18" height="18"/>
  </g>
  <path d="M0 565 C140 520, 230 590, 360 548 S620 510, 760 548 S980 598, 1200 540 L1200 800 L0 800 Z" fill="#8d4b2c" opacity="0.55"/>
</svg>