<svg xmlns="http://www.w3.org/2000/svg" viewBox="0 0 1200 800" role="img" aria-labelledby="title desc">
  <title id="title">Tech code scene</title>
  <desc id="desc">Professional dark coding workspace with interface panels and syntax highlight bars.</desc>
  <defs>
    <linearGradient id="bg" x1="0" x2="1" y1="0" y2="1">
      <stop offset="0%" stop-color="#06101a"/>
      <stop offset="55%" stop-color="#0b1c2f"/>
      <stop offset="100%" stop-color="#142f49"/>
    </linearGradient>
    <linearGradient id="accent" x1="0" x2="1" y1="0" y2="0">
      <stop offset="0%" stop-color="#5ee7ff"/>
      <stop offset="50%" stop-color="#8b7dff"/>
      <stop offset="100%" stop-color="#ff7db8"/>
    </linearGradient>
  </defs>
  <rect width="1200" height="800" fill="url(#bg)"/>
  <rect x="90" y="86" width="1020" height="628" rx="34" fill="#0d1724" stroke="#27445f" stroke-width="2"/>
  <rect x="124" y="124" width="952" height="54" rx="16" fill="#122033"/>
  <circle cx="160" cy="151" r="7" fill="#5ee7ff"/>
  <circle cx="184" cy="151" r="7" fill="#8b7dff"/>
  <circle cx="208" cy="151" r="7" fill="#ff7db8"/>
  <rect x="150" y="208" width="390" height="360" rx="24" fill="#101b2b"/>
  <rect x="580" y="208" width="420" height="360" rx="24" fill="#101b2b"/>
  <rect x="150" y="592" width="850" height="88" rx="20" fill="#0f1a2a"/>
  <g fill="#5ee7ff" opacity="0.88">
    <rect x="184" y="244" width="235" height="14" rx="7"/>
    <rect x="184" y="290" width="320" height="14" rx="7"/>
    <rect x="184" y="336" width="196" height="14" rx="7"/>
    <rect x="184" y="382" width="350" height="14" rx="7"/>
    <rect x="184" y="428" width="278" height="14" rx="7"/>
    <rect x="184" y="474" width="314" height="14" rx="7"/>
  </g>
  <g fill="#ff7db8" opacity="0.92">
    <rect x="430" y="244" width="74" height="14" rx="7"/>
    <rect x="520" y="290" width="112" height="14" rx="7"/>
    <rect x="404" y="336" width="122" height="14" rx="7"/>
    <rect x="558" y="382" width="96" height="14" rx="7"/>
    <rect x="476" y="428" width="138" height="14" rx="7"/>
    <rect x="548" y="474" width="118" height="14" rx="7"/>
  </g>
  <rect x="614" y="244" width="314" height="46" rx="14" fill="#16273b"/>
  <rect x="614" y="306" width="270" height="46" rx="14" fill="#14263f"/>
  <rect x="614" y="368" width="300" height="46" rx="14" fill="#17304a"/>
  <rect x="614" y="430" width="214" height="46" rx="14" fill="#1b3954"/>
  <rect x="614" y="492" width="244" height="46" rx="14" fill="#1e4665"/>
  <path d="M650 626h216" stroke="url(#accent)" stroke-width="10" stroke-linecap="round"/>
  <path d="M890 626h84" stroke="#ffd166" stroke-width="10" stroke-linecap="round"/>
  <path d="M150 208h850" stroke="url(#accent)" stroke-width="2" opacity="0.5"/>
</svg>