<svg xmlns="http://www.w3.org/2000/svg" viewBox="0 0 1200 800" role="img" aria-labelledby="title desc">
  <title id="title">Web development editor</title>
  <desc id="desc">Professional code editor interface with syntax highlighted lines.</desc>
  <defs>
    <linearGradient id="bg" x1="0" x2="1" y1="0" y2="1">
      <stop offset="0%" stop-color="#08111d"/>
      <stop offset="100%" stop-color="#13263b"/>
    </linearGradient>
    <linearGradient id="line" x1="0" x2="1" y1="0" y2="0">
      <stop offset="0%" stop-color="#6ee7ff"/>
      <stop offset="50%" stop-color="#8b7dff"/>
      <stop offset="100%" stop-color="#ff7db8"/>
    </linearGradient>
  </defs>
  <rect width="1200" height="800" fill="url(#bg)"/>
  <rect x="95" y="88" width="1010" height="624" rx="34" fill="#0d1724" stroke="#27445f" stroke-width="2"/>
  <rect x="128" y="128" width="944" height="54" rx="16" fill="#122033"/>
  <circle cx="164" cy="155" r="7" fill="#6ee7ff"/>
  <circle cx="188" cy="155" r="7" fill="#8b7dff"/>
  <circle cx="212" cy="155" r="7" fill="#ff7db8"/>
  <rect x="150" y="212" width="380" height="356" rx="24" fill="#101b2b"/>
  <rect x="560" y="212" width="420" height="356" rx="24" fill="#101b2b"/>
  <g opacity="0.9" fill="#5ee7ff">
    <rect x="182" y="246" width="252" height="14" rx="7"/>
    <rect x="182" y="292" width="338" height="14" rx="7"/>
    <rect x="182" y="338" width="212" height="14" rx="7"/>
    <rect x="182" y="384" width="320" height="14" rx="7"/>
    <rect x="182" y="430" width="274" height="14" rx="7"/>
    <rect x="182" y="476" width="290" height="14" rx="7"/>
  </g>
  <g opacity="0.9" fill="#ff7db8">
    <rect x="442" y="246" width="74" height="14" rx="7"/>
    <rect x="524" y="292" width="106" height="14" rx="7"/>
    <rect x="398" y="338" width="122" height="14" rx="7"/>
    <rect x="550" y="384" width="100" height="14" rx="7"/>
    <rect x="472" y="430" width="142" height="14" rx="7"/>
    <rect x="538" y="476" width="118" height="14" rx="7"/>
  </g>
  <rect x="598" y="246" width="314" height="46" rx="14" fill="#16273b"/>
  <rect x="598" y="308" width="260" height="46" rx="14" fill="#14263f"/>
  <rect x="598" y="370" width="296" height="46" rx="14" fill="#17304a"/>
  <rect x="598" y="432" width="214" height="46" rx="14" fill="#1b3954"/>
  <rect x="598" y="494" width="250" height="46" rx="14" fill="#1e4665"/>
  <path d="M160 212h848" stroke="url(#line)" stroke-width="2" opacity="0.55"/>
  <path d="M638 626h224" stroke="url(#line)" stroke-width="10" stroke-linecap="round"/>
  <path d="M880 626h76" stroke="#ffd166" stroke-width="10" stroke-linecap="round"/>
</svg>