<svg xmlns="http://www.w3.org/2000/svg" viewBox="0 0 1200 800" role="img" aria-labelledby="title desc">
  <title id="title">Tech laptop scene</title>
  <desc id="desc">Professional laptop scene with a clean interface and accent lighting.</desc>
  <defs>
    <linearGradient id="bg" x1="0" x2="1" y1="0" y2="1">
      <stop offset="0%" stop-color="#06101a"/>
      <stop offset="100%" stop-color="#18324a"/>
    </linearGradient>
    <linearGradient id="screen" x1="0" x2="1" y1="0" y2="1">
      <stop offset="0%" stop-color="#eaf1ff"/>
      <stop offset="100%" stop-color="#bfd1ec"/>
    </linearGradient>
  </defs>
  <rect width="1200" height="800" fill="url(#bg)"/>
  <circle cx="980" cy="122" r="82" fill="#ffd166" opacity="0.86"/>
  <rect x="260" y="158" width="680" height="424" rx="28" fill="#0f172a" stroke="#334b67" stroke-width="2"/>
  <rect x="294" y="192" width="612" height="356" rx="20" fill="url(#screen)"/>
  <rect x="324" y="224" width="252" height="20" rx="10" fill="#7c8eb0"/>
  <rect x="324" y="272" width="496" height="20" rx="10" fill="#c5d3ea"/>
  <rect x="324" y="320" width="420" height="20" rx="10" fill="#ff7db8"/>
  <rect x="324" y="368" width="468" height="20" rx="10" fill="#6ee7ff"/>
  <rect x="324" y="416" width="330" height="20" rx="10" fill="#ffd166"/>
  <rect x="324" y="464" width="388" height="20" rx="10" fill="#7c8eb0"/>
  <rect x="278" y="600" width="644" height="52" rx="22" fill="#162235"/>
  <path d="M520 592c40 18 68 26 108 26s72-8 108-26" fill="none" stroke="#6ee7ff" stroke-width="10" stroke-linecap="round"/>
  <g fill="#ff7db8" opacity="0.82">
    <circle cx="208" cy="248" r="10"/>
    <circle cx="1018" cy="248" r="10"/>
    <circle cx="198" cy="346" r="7"/>
    <circle cx="1004" cy="332" r="8"/>
  </g>
  <path d="M300 604h600" stroke="url(#accent)" stroke-width="2" opacity="0.55"/>
</svg>