<svg xmlns="http://www.w3.org/2000/svg" viewBox="0 0 1200 800" role="img" aria-labelledby="title desc">
  <title id="title">Web stack developer</title>
  <desc id="desc">Developer workstation with layers of code, UI, and backend cards.</desc>
  <defs>
    <linearGradient id="bg" x1="0" x2="1" y1="0" y2="1">
      <stop offset="0%" stop-color="#07111d"/>
      <stop offset="100%" stop-color="#18324a"/>
    </linearGradient>
    <linearGradient id="accent" x1="0" x2="1" y1="0" y2="0">
      <stop offset="0%" stop-color="#6ee7ff"/>
      <stop offset="50%" stop-color="#8b7dff"/>
      <stop offset="100%" stop-color="#ff7db8"/>
    </linearGradient>
  </defs>
  <rect width="1200" height="800" fill="url(#bg)"/>
  <rect x="120" y="96" width="960" height="608" rx="34" fill="#0d1724" stroke="#2c4761" stroke-width="2"/>
  <rect x="160" y="136" width="760" height="72" rx="20" fill="#122033"/>
  <circle cx="204" cy="172" r="8" fill="#6ee7ff"/>
  <circle cx="232" cy="172" r="8" fill="#8b7dff"/>
  <circle cx="260" cy="172" r="8" fill="#ff7db8"/>
  <rect x="160" y="232" width="280" height="332" rx="24" fill="#101b2b"/>
  <rect x="460" y="232" width="280" height="332" rx="24" fill="#101b2b"/>
  <rect x="760" y="232" width="280" height="332" rx="24" fill="#101b2b"/>
  <rect x="160" y="586" width="880" height="52" rx="20" fill="#111d31"/>
  <rect x="190" y="270" width="220" height="18" rx="9" fill="#6ee7ff"/>
  <rect x="190" y="304" width="160" height="14" rx="7" fill="#d4a0b0"/>
  <rect x="190" y="338" width="190" height="14" rx="7" fill="#a0d4b4"/>
  <rect x="190" y="372" width="138" height="14" rx="7" fill="#ffd166"/>
  <rect x="490" y="270" width="220" height="18" rx="9" fill="#8b7dff"/>
  <rect x="490" y="304" width="160" height="14" rx="7" fill="#6ee7ff"/>
  <rect x="490" y="338" width="190" height="14" rx="7" fill="#ff7db8"/>
  <rect x="490" y="372" width="138" height="14" rx="7" fill="#a0d4b4"/>
  <rect x="790" y="270" width="220" height="18" rx="9" fill="#ff7db8"/>
  <rect x="790" y="304" width="160" height="14" rx="7" fill="#6ee7ff"/>
  <rect x="790" y="338" width="190" height="14" rx="7" fill="#ffd166"/>
  <rect x="790" y="372" width="138" height="14" rx="7" fill="#8b7dff"/>
  <path d="M200 630h800" stroke="url(#accent)" stroke-width="10" stroke-linecap="round"/>
</svg>