<svg xmlns="http://www.w3.org/2000/svg" viewBox="0 0 1200 800" role="img" aria-labelledby="title desc">
  <title id="title">African woman with laptop</title>
  <desc id="desc">Stylized illustration of an African woman working on a laptop in a warm, modern setting.</desc>
  <defs>
    <linearGradient id="bg" x1="0" x2="1" y1="0" y2="1">
      <stop offset="0%" stop-color="#0f1f24"/>
      <stop offset="55%" stop-color="#224b52"/>
      <stop offset="100%" stop-color="#f3c37b"/>
    </linearGradient>
    <linearGradient id="table" x1="0" x2="0" y1="0" y2="1">
      <stop offset="0%" stop-color="#7b4d2b"/>
      <stop offset="100%" stop-color="#4c2d18"/>
    </linearGradient>
  </defs>
  <rect width="1200" height="800" fill="url(#bg)"/>
  <circle cx="980" cy="125" r="78" fill="#ffd98d" opacity="0.88"/>
  <rect x="0" y="610" width="1200" height="190" fill="url(#table)"/>
  <rect x="230" y="455" width="740" height="30" rx="15" fill="#1d1d1f" opacity="0.42"/>
  <g transform="translate(0 20)">
    <rect x="405" y="350" width="390" height="250" rx="26" fill="#1b1d23"/>
    <rect x="425" y="370" width="350" height="210" rx="16" fill="#dfe8f2"/>
    <rect x="448" y="392" width="304" height="160" rx="12" fill="#9ac2d6"/>
    <circle cx="600" cy="285" r="92" fill="#7c4a36"/>
    <path d="M540 292c16-58 90-88 144-60 28 14 42 42 42 76 0 44-24 73-61 83-43 12-98 0-125-36-15-20-21-43 0-63z" fill="#d79f7f"/>
    <path d="M533 305c-3-41 10-72 37-94 28-23 72-28 107-13 34 15 55 48 53 91-24-14-55-20-90-17-39 3-74 15-107 33z" fill="#1f1d25"/>
    <path d="M512 321c-22 37-27 81-18 124 11 49 46 87 106 104 71 19 145-10 171-74 18-43 8-92-14-136-21 21-55 35-94 38-63 4-116-17-151-56z" fill="#5b3b30"/>
    <rect x="505" y="560" width="190" height="50" rx="20" fill="#1b1d23"/>
    <path d="M500 555c-17 1-42 26-61 68l-49 110h90l28-73c10-25 22-47 36-69z" fill="#6b6f7d"/>
    <path d="M699 555c17 1 42 26 61 68l49 110h-90l-28-73c-10-25-22-47-36-69z" fill="#6b6f7d"/>
    <rect x="540" y="455" width="120" height="20" rx="10" fill="#f4d8c7" opacity="0.85"/>
  </g>
  <g fill="#f9ead0" opacity="0.38">
    <circle cx="146" cy="125" r="8"/>
    <circle cx="188" cy="164" r="6"/>
    <circle cx="1060" cy="240" r="6"/>
    <circle cx="1018" cy="204" r="8"/>
  </g>
</svg>