<svg xmlns="http://www.w3.org/2000/svg" viewBox="0 0 1200 800" role="img" aria-labelledby="title desc">
  <title id="title">Tech dashboard</title>
  <desc id="desc">Professional analytics dashboard with clean charts and summary cards.</desc>
  <defs>
    <linearGradient id="bg" x1="0" x2="1" y1="0" y2="1">
      <stop offset="0%" stop-color="#07111d"/>
      <stop offset="100%" stop-color="#12283b"/>
    </linearGradient>
    <linearGradient id="accent" x1="0" x2="1" y1="0" y2="1">
      <stop offset="0%" stop-color="#6ee7ff"/>
      <stop offset="50%" stop-color="#8b7dff"/>
      <stop offset="100%" stop-color="#ff7db8"/>
    </linearGradient>
  </defs>
  <rect width="1200" height="800" fill="url(#bg)"/>
  <rect x="84" y="84" width="1032" height="632" rx="36" fill="#0f172a" stroke="#27445f" stroke-width="2"/>
  <rect x="124" y="126" width="260" height="104" rx="22" fill="#132235"/>
  <rect x="404" y="126" width="260" height="104" rx="22" fill="#13283d"/>
  <rect x="684" y="126" width="392" height="104" rx="22" fill="#15283f"/>
  <rect x="124" y="258" width="670" height="408" rx="28" fill="#0e1728"/>
  <rect x="824" y="258" width="252" height="408" rx="28" fill="#111d31"/>
  <path d="M176 604V470l92 38 116-118 110 68 146-96 114 58 86-70" fill="none" stroke="url(#accent)" stroke-width="16" stroke-linecap="round" stroke-linejoin="round"/>
  <circle cx="268" cy="508" r="10" fill="#6ee7ff"/>
  <circle cx="388" cy="390" r="10" fill="#ff7db8"/>
  <circle cx="500" cy="458" r="10" fill="#ffd166"/>
  <circle cx="646" cy="360" r="10" fill="#6ee7ff"/>
  <rect x="856" y="308" width="148" height="16" rx="8" fill="#33506d"/>
  <rect x="856" y="348" width="108" height="16" rx="8" fill="#33506d"/>
  <rect x="856" y="388" width="132" height="16" rx="8" fill="#33506d"/>
  <rect x="856" y="440" width="178" height="16" rx="8" fill="#33506d"/>
  <rect x="856" y="480" width="92" height="16" rx="8" fill="#33506d"/>
  <rect x="856" y="540" width="124" height="16" rx="8" fill="#33506d"/>
  <path d="M856 604h150" stroke="url(#accent)" stroke-width="8" stroke-linecap="round"/>
  <path d="M160 126h892" stroke="url(#accent)" stroke-width="2" opacity="0.55"/>
</svg>