<svg xmlns="http://www.w3.org/2000/svg" viewBox="0 0 1200 800" role="img" aria-labelledby="title desc">
  <title id="title">Showtime project</title>
  <desc id="desc">Team and schedule dashboard mockup.</desc>
  <defs>
    <linearGradient id="bg" x1="0" x2="1" y1="0" y2="1"><stop offset="0%" stop-color="#1f1220"/><stop offset="100%" stop-color="#3d2244"/></linearGradient>
  </defs>
  <rect width="1200" height="800" fill="url(#bg)"/>
  <rect x="120" y="100" width="960" height="600" rx="30" fill="#111827" stroke="#4b5563" stroke-width="2"/>
  <rect x="160" y="145" width="300" height="48" rx="16" fill="#d4a0a0"/>
  <rect x="480" y="145" width="170" height="18" rx="9" fill="#374151"/>
  <rect x="480" y="175" width="120" height="18" rx="9" fill="#374151"/>
  <g fill="#1f2937">
    <rect x="160" y="230" width="330" height="220" rx="24"/>
    <rect x="510" y="230" width="290" height="220" rx="24"/>
    <rect x="820" y="230" width="220" height="220" rx="24"/>
    <rect x="160" y="475" width="420" height="170" rx="24"/>
    <rect x="600" y="475" width="440" height="170" rx="24"/>
  </g>
  <circle cx="235" cy="300" r="38" fill="#a0b4d4"/>
  <circle cx="325" cy="300" r="38" fill="#a0d4b4"/>
  <circle cx="415" cy="300" r="38" fill="#f2c27b"/>
  <rect x="190" y="360" width="250" height="16" rx="8" fill="#334155"/>
  <rect x="540" y="290" width="220" height="16" rx="8" fill="#334155"/>
  <rect x="540" y="325" width="180" height="16" rx="8" fill="#334155"/>
  <rect x="540" y="360" width="240" height="16" rx="8" fill="#334155"/>
  <rect x="850" y="285" width="150" height="18" rx="9" fill="#d4a0b0"/>
  <rect x="850" y="330" width="120" height="18" rx="9" fill="#a0d4b4"/>
  <rect x="850" y="375" width="160" height="18" rx="9" fill="#f2c27b"/>
</svg>