<svg xmlns="http://www.w3.org/2000/svg" viewBox="0 0 1200 800" role="img" aria-labelledby="title desc">
  <title id="title">FreeAds project</title>
  <desc id="desc">Marketplace style cards with search and listing layout.</desc>
  <defs>
    <linearGradient id="bg" x1="0" x2="1" y1="0" y2="1"><stop offset="0%" stop-color="#10202a"/><stop offset="100%" stop-color="#223b4d"/></linearGradient>
  </defs>
  <rect width="1200" height="800" fill="url(#bg)"/>
  <rect x="110" y="100" width="980" height="600" rx="30" fill="#0f172a" stroke="#334155" stroke-width="2"/>
  <rect x="160" y="145" width="620" height="54" rx="18" fill="#111827"/>
  <rect x="180" y="161" width="280" height="22" rx="11" fill="#334155"/>
  <rect x="820" y="145" width="220" height="54" rx="18" fill="#a0d4b4"/>
  <g fill="#1f2937">
    <rect x="160" y="230" width="250" height="170" rx="24"/>
    <rect x="430" y="230" width="250" height="170" rx="24"/>
    <rect x="700" y="230" width="250" height="170" rx="24"/>
    <rect x="160" y="420" width="350" height="230" rx="24"/>
    <rect x="530" y="420" width="420" height="230" rx="24"/>
  </g>
  <circle cx="230" cy="305" r="42" fill="#d4a0b0"/>
  <circle cx="500" cy="305" r="42" fill="#a0b4d4"/>
  <circle cx="770" cy="305" r="42" fill="#f2c27b"/>
  <rect x="190" y="364" width="180" height="16" rx="8" fill="#94a3b8"/>
  <rect x="460" y="364" width="180" height="16" rx="8" fill="#94a3b8"/>
  <rect x="730" y="364" width="180" height="16" rx="8" fill="#94a3b8"/>
  <rect x="190" y="470" width="250" height="16" rx="8" fill="#334155"/>
  <rect x="190" y="505" width="160" height="16" rx="8" fill="#334155"/>
  <rect x="560" y="470" width="300" height="16" rx="8" fill="#334155"/>
  <rect x="560" y="505" width="240" height="16" rx="8" fill="#334155"/>
  <rect x="560" y="540" width="210" height="16" rx="8" fill="#334155"/>
</svg>