<svg xmlns="http://www.w3.org/2000/svg" viewBox="0 0 1200 800">
  <defs>
    <linearGradient id="bg" x1="0" x2="1" y1="0" y2="1"><stop stop-color="#151827"/><stop offset="1" stop-color="#6b2d5c"/></linearGradient>
  </defs>
  <rect width="1200" height="800" fill="url(#bg)"/>
  <rect x="120" y="100" width="960" height="600" rx="36" fill="#fff" opacity=".08"/>
  <rect x="170" y="150" width="860" height="76" rx="22" fill="#fff" opacity=".18"/>
  <circle cx="220" cy="188" r="18" fill="#d4a0b0"/>
  <rect x="270" y="176" width="180" height="24" rx="12" fill="#fff" opacity=".55"/>
  <rect x="720" y="172" width="110" height="32" rx="16" fill="#d4a0b0"/>
  <rect x="850" y="172" width="130" height="32" rx="16" fill="#fff" opacity=".22"/>
  <rect x="170" y="285" width="250" height="300" rx="28" fill="#fff" opacity=".16"/>
  <rect x="475" y="285" width="250" height="300" rx="28" fill="#fff" opacity=".16"/>
  <rect x="780" y="285" width="250" height="300" rx="28" fill="#fff" opacity=".16"/>
  <rect x="205" y="330" width="180" height="120" rx="22" fill="#d4a0b0" opacity=".75"/>
  <rect x="510" y="330" width="180" height="120" rx="22" fill="#a0b4d4" opacity=".75"/>
  <rect x="815" y="330" width="180" height="120" rx="22" fill="#a0d4b4" opacity=".75"/>
  <rect x="205" y="485" width="150" height="18" rx="9" fill="#fff" opacity=".5"/>
  <rect x="510" y="485" width="150" height="18" rx="9" fill="#fff" opacity=".5"/>
  <rect x="815" y="485" width="150" height="18" rx="9" fill="#fff" opacity=".5"/>
  <text x="170" y="660" fill="#fff" font-family="Inter, Arial" font-size="54" font-weight="700">MY SHOP</text>
</svg>
