<svg xmlns="http://www.w3.org/2000/svg" viewBox="0 0 1200 800" role="img" aria-labelledby="title desc">
  <title id="title">My Shop project</title>
  <desc id="desc">Ecommerce interface mockup with product cards and checkout emphasis.</desc>
  <defs>
    <linearGradient id="bg" x1="0" x2="1" y1="0" y2="1"><stop offset="0%" stop-color="#20111d"/><stop offset="100%" stop-color="#2f1e38"/></linearGradient>
  </defs>
  <rect width="1200" height="800" fill="url(#bg)"/>
  <rect x="120" y="100" width="960" height="600" rx="30" fill="#111827" stroke="#4b5563" stroke-width="2"/>
  <rect x="160" y="145" width="220" height="50" rx="14" fill="#d4a0b0"/>
  <rect x="400" y="145" width="160" height="18" rx="9" fill="#334155"/>
  <rect x="400" y="175" width="100" height="18" rx="9" fill="#334155"/>
  <g fill="#1f2937">
    <rect x="160" y="230" width="260" height="180" rx="22"/>
    <rect x="440" y="230" width="260" height="180" rx="22"/>
    <rect x="720" y="230" width="260" height="180" rx="22"/>
    <rect x="160" y="440" width="380" height="170" rx="22"/>
    <rect x="560" y="440" width="420" height="170" rx="22"/>
  </g>
  <circle cx="250" cy="302" r="46" fill="#a0d4b4"/>
  <circle cx="530" cy="302" r="46" fill="#a0b4d4"/>
  <circle cx="810" cy="302" r="46" fill="#f2c27b"/>
  <rect x="190" y="360" width="200" height="16" rx="8" fill="#94a3b8"/>
  <rect x="470" y="360" width="200" height="16" rx="8" fill="#94a3b8"/>
  <rect x="750" y="360" width="200" height="16" rx="8" fill="#94a3b8"/>
  <rect x="190" y="470" width="150" height="18" rx="9" fill="#d4a0b0"/>
  <rect x="590" y="470" width="210" height="18" rx="9" fill="#a0d4b4"/>
  <rect x="590" y="505" width="260" height="16" rx="8" fill="#334155"/>
  <rect x="590" y="540" width="180" height="16" rx="8" fill="#334155"/>
</svg>