<svg xmlns="http://www.w3.org/2000/svg" viewBox="0 0 1200 800" role="img" aria-labelledby="title desc">
  <title id="title">Movies project</title>
  <desc id="desc">Streaming catalog cards with a cinema feel.</desc>
  <defs>
    <linearGradient id="bg" x1="0" x2="1" y1="0" y2="1"><stop offset="0%" stop-color="#111827"/><stop offset="100%" stop-color="#2a3b4f"/></linearGradient>
  </defs>
  <rect width="1200" height="800" fill="url(#bg)"/>
  <rect x="110" y="100" width="980" height="600" rx="30" fill="#0f172a" stroke="#334155" stroke-width="2"/>
  <rect x="160" y="145" width="360" height="50" rx="16" fill="#d4a0cf"/>
  <rect x="540" y="145" width="200" height="18" rx="9" fill="#374151"/>
  <g fill="#1f2937">
    <rect x="160" y="230" width="220" height="310" rx="24"/>
    <rect x="400" y="230" width="220" height="310" rx="24"/>
    <rect x="640" y="230" width="220" height="310" rx="24"/>
    <rect x="880" y="230" width="220" height="310" rx="24"/>
  </g>
  <rect x="190" y="255" width="160" height="210" rx="16" fill="#d4a0b0"/>
  <rect x="430" y="255" width="160" height="210" rx="16" fill="#a0b4d4"/>
  <rect x="670" y="255" width="160" height="210" rx="16" fill="#a0d4b4"/>
  <rect x="910" y="255" width="160" height="210" rx="16" fill="#f2c27b"/>
  <rect x="190" y="490" width="160" height="16" rx="8" fill="#94a3b8"/>
  <rect x="430" y="490" width="160" height="16" rx="8" fill="#94a3b8"/>
  <rect x="670" y="490" width="160" height="16" rx="8" fill="#94a3b8"/>
  <rect x="910" y="490" width="160" height="16" rx="8" fill="#94a3b8"/>
  <circle cx="600" cy="620" r="26" fill="#d4a0b0"/>
</svg>